<?xml version="1.0" encoding="UTF-8"?>
<svg xmlns="http://www.w3.org/2000/svg" viewBox="0 0 1889 150" fill="none">
  <defs>
    <!-- Dot grid background -->
    <pattern id="dotGrid" x="0" y="0" width="20" height="20" patternUnits="userSpaceOnUse">
      <circle cx="10" cy="10" r="0.8" fill="#37c6f4" opacity="0.13"/>
    </pattern>
    <!-- Hub glow filter -->
    <filter id="hubGlow" x="-25%" y="-25%" width="150%" height="150%">
      <feGaussianBlur stdDeviation="2.5" result="blur"/>
      <feMerge><feMergeNode in="blur"/><feMergeNode in="SourceGraphic"/></feMerge>
    </filter>
  </defs>

  <!-- Background -->
  <rect width="1889" height="150" fill="url(#dotGrid)"/>

  <!-- Zone subtle fills -->
  <rect x="0"    y="0" width="330"  height="150" fill="#37c6f4" fill-opacity="0.013"/>
  <rect x="330"  y="0" width="780"  height="150" fill="#37c6f4" fill-opacity="0.007"/>
  <rect x="1110" y="0" width="350"  height="150" fill="#37c6f4" fill-opacity="0.012"/>
  <rect x="1460" y="0" width="429"  height="150" fill="#37c6f4" fill-opacity="0.018"/>

  <!-- Zone dividers -->
  <line x1="330"  y1="15" x2="330"  y2="150" stroke="#37c6f4" stroke-width="0.6" stroke-dasharray="3 3" opacity="0.25"/>
  <line x1="1110" y1="15" x2="1110" y2="150" stroke="#37c6f4" stroke-width="0.6" stroke-dasharray="3 3" opacity="0.25"/>
  <line x1="1460" y1="15" x2="1460" y2="150" stroke="#37c6f4" stroke-width="0.6" stroke-dasharray="3 3" opacity="0.25"/>

  <!-- Column headers -->
  <text x="165"  y="11" text-anchor="middle" font-family="'Courier New',Courier,monospace" font-size="8.5" fill="#37c6f4" opacity="0.58" letter-spacing="1.5">DATA SOURCES</text>
  <text x="720"  y="11" text-anchor="middle" font-family="'Courier New',Courier,monospace" font-size="8.5" fill="#37c6f4" opacity="0.58" letter-spacing="1.5">AI ANALYSIS ENGINE</text>
  <text x="1285" y="11" text-anchor="middle" font-family="'Courier New',Courier,monospace" font-size="8.5" fill="#37c6f4" opacity="0.58" letter-spacing="1.5">ROUTING DECISION</text>
  <text x="1674" y="11" text-anchor="middle" font-family="'Courier New',Courier,monospace" font-size="8.5" fill="#37c6f4" opacity="0.58" letter-spacing="1.5">REMEDIATION</text>
  <line x1="0" y1="15" x2="1889" y2="15" stroke="#37c6f4" stroke-width="0.45" opacity="0.18"/>

  <!-- SOURCE NODES -->
  <rect x="8" y="22" width="108" height="12" rx="1.5" fill="#040d18" stroke="#c84040" stroke-width="0.75"/>
  <circle cx="17" cy="28" r="2.5" fill="#f04545" opacity="0.85"/>
  <text x="23" y="31.5" font-family="'Courier New',Courier,monospace" font-size="7.5" fill="#c8dde8" letter-spacing="0.5">KDC SERVER</text>

  <rect x="8" y="36" width="108" height="12" rx="1.5" fill="#040d18" stroke="#c84040" stroke-width="0.75"/>
  <circle cx="17" cy="42" r="2.5" fill="#f04545" opacity="0.85"/>
  <text x="23" y="45.5" font-family="'Courier New',Courier,monospace" font-size="7.5" fill="#c8dde8" letter-spacing="0.5">FTP CLIENT</text>

  <rect x="8" y="50" width="108" height="12" rx="1.5" fill="#040d18" stroke="#c87028" stroke-width="0.75"/>
  <circle cx="17" cy="56" r="2.5" fill="#ffb347" opacity="0.85"/>
  <text x="23" y="59.5" font-family="'Courier New',Courier,monospace" font-size="7.5" fill="#c8dde8" letter-spacing="0.5">HTTP · HTTPS</text>

  <rect x="8" y="64" width="108" height="12" rx="1.5" fill="#040d18" stroke="#c87028" stroke-width="0.75"/>
  <circle cx="17" cy="70" r="2.5" fill="#ffb347" opacity="0.85"/>
  <text x="23" y="73.5" font-family="'Courier New',Courier,monospace" font-size="7.5" fill="#c8dde8" letter-spacing="0.5">JSON PAYLOAD</text>

  <rect x="8" y="78" width="108" height="12" rx="1.5" fill="#040d18" stroke="#c87028" stroke-width="0.75"/>
  <circle cx="17" cy="84" r="2.5" fill="#ffb347" opacity="0.85"/>
  <text x="23" y="87.5" font-family="'Courier New',Courier,monospace" font-size="7.5" fill="#c8dde8" letter-spacing="0.5">DNS RESOLVER</text>

  <rect x="8" y="92" width="108" height="12" rx="1.5" fill="#040d18" stroke="#c84040" stroke-width="0.75"/>
  <circle cx="17" cy="98" r="2.5" fill="#f04545" opacity="0.85"/>
  <text x="23" y="101.5" font-family="'Courier New',Courier,monospace" font-size="7.5" fill="#c8dde8" letter-spacing="0.5">LDAP · AUTH</text>

  <rect x="8" y="106" width="108" height="12" rx="1.5" fill="#040d18" stroke="#37c6f4" stroke-width="0.6" stroke-opacity="0.6"/>
  <circle cx="17" cy="112" r="2.5" fill="#37c6f4" opacity="0.65"/>
  <text x="23" y="115.5" font-family="'Courier New',Courier,monospace" font-size="7.5" fill="#c8dde8" letter-spacing="0.5">SMTP · MAIL</text>

  <rect x="8" y="120" width="108" height="12" rx="1.5" fill="#040d18" stroke="#37c6f4" stroke-width="0.6" stroke-opacity="0.6"/>
  <circle cx="17" cy="126" r="2.5" fill="#37c6f4" opacity="0.65"/>
  <text x="23" y="129.5" font-family="'Courier New',Courier,monospace" font-size="7.5" fill="#c8dde8" letter-spacing="0.5">TLS · CERT</text>

  <!-- CONVERGENCE PATHS -->
  <path d="M 116 28 C 380 28 500 75 648 75" stroke="#d06060" stroke-width="0.9" opacity="0.65"/>
  <path d="M 116 42 C 380 42 500 75 648 75" stroke="#d06060" stroke-width="0.9" opacity="0.65"/>
  <path d="M 116 56 C 380 56 520 75 648 75" stroke="#c88040" stroke-width="0.9" opacity="0.6"/>
  <path d="M 116 70 C 380 70 540 75 648 75" stroke="#c88040" stroke-width="0.9" opacity="0.6"/>
  <path d="M 116 84 C 380 84 540 75 648 75" stroke="#c88040" stroke-width="0.9" opacity="0.6"/>
  <path d="M 116 98 C 380 98 520 75 648 75" stroke="#d06060" stroke-width="0.9" opacity="0.65"/>
  <path d="M 116 112 C 380 112 500 75 648 75" stroke="#37c6f4" stroke-width="0.85" opacity="0.5"/>
  <path d="M 116 126 C 380 126 480 75 648 75" stroke="#37c6f4" stroke-width="0.85" opacity="0.5"/>

  <!-- Data packet dots -->
  <circle cx="230" cy="31"  r="1.4" fill="#d06060" opacity="0.65"/>
  <circle cx="370" cy="42"  r="1.4" fill="#d06060" opacity="0.55"/>
  <circle cx="180" cy="58"  r="1.4" fill="#c88040" opacity="0.6"/>
  <circle cx="310" cy="66"  r="1.4" fill="#c88040" opacity="0.55"/>
  <circle cx="250" cy="82"  r="1.4" fill="#c88040" opacity="0.5"/>
  <circle cx="200" cy="96"  r="1.4" fill="#d06060" opacity="0.6"/>
  <circle cx="340" cy="105" r="1.4" fill="#37c6f4" opacity="0.5"/>
  <circle cx="210" cy="122" r="1.4" fill="#37c6f4" opacity="0.45"/>

  <!-- AI ENGINE HUB -->
  <circle cx="720" cy="75" r="46" fill="none" stroke="#37c6f4" stroke-width="0.45" stroke-dasharray="5 9" opacity="0.22"/>
  <circle cx="720" cy="75" r="34" fill="none" stroke="#37c6f4" stroke-width="0.35" stroke-dasharray="2 6" opacity="0.15"/>
  <rect x="648" y="48" width="144" height="54" rx="4" fill="#030c17" stroke="#37c6f4" stroke-width="1.3" filter="url(#hubGlow)"/>
  <rect x="652" y="52" width="136" height="46" rx="3" fill="#37c6f4" fill-opacity="0.04"/>
  <line x1="658" y1="64" x2="784" y2="64" stroke="#37c6f4" stroke-width="0.4" opacity="0.2"/>
  <line x1="658" y1="68" x2="784" y2="68" stroke="#37c6f4" stroke-width="0.4" opacity="0.12"/>
  <text x="720" y="70" text-anchor="middle" font-family="'Courier New',Courier,monospace" font-size="9.5" fill="#37c6f4" opacity="0.98" letter-spacing="1.5">AI ENGINE</text>
  <text x="720" y="82" text-anchor="middle" font-family="'Courier New',Courier,monospace" font-size="6.5" fill="#7dafc4" opacity="0.72" letter-spacing="0.5">ANALYZING EVENTS</text>
  <text x="720" y="93" text-anchor="middle" font-family="'Courier New',Courier,monospace" font-size="6"   fill="#37c6f4" opacity="0.42" letter-spacing="0.3">8 streams · real-time</text>

  <!-- OUTPUT BRANCHES -->
  <path d="M 792 62 C 880 62 920 38 1118 38" stroke="#f04545" stroke-width="1.35" opacity="0.78"/>
  <polygon points="1118,34.5 1127,38 1118,41.5" fill="#f04545" opacity="0.78"/>
  <line x1="792" y1="75" x2="1118" y2="75" stroke="#ffb347" stroke-width="1.35" opacity="0.68"/>
  <polygon points="1118,71.5 1127,75 1118,78.5" fill="#ffb347" opacity="0.68"/>
  <path d="M 792 88 C 880 88 920 112 1118 112" stroke="#37c6f4" stroke-width="1.0" opacity="0.48"/>
  <polygon points="1118,108.5 1127,112 1118,115.5" fill="#37c6f4" opacity="0.48"/>

  <!-- Branch % labels -->
  <text x="965" y="33"  text-anchor="middle" font-family="'Courier New',Courier,monospace" font-size="7" fill="#f04545" opacity="0.75" letter-spacing="0.5">1%</text>
  <text x="965" y="70"  text-anchor="middle" font-family="'Courier New',Courier,monospace" font-size="7" fill="#ffb347" opacity="0.68" letter-spacing="0.5">6%</text>
  <text x="965" y="107" text-anchor="middle" font-family="'Courier New',Courier,monospace" font-size="7" fill="#37c6f4" opacity="0.48" letter-spacing="0.5">93%</text>

  <!-- ROUTING DECISION BOXES -->
  <rect x="1130" y="22" width="188" height="34" rx="2" fill="#120404" stroke="#f04545" stroke-width="0.9" stroke-dasharray="4 2"/>
  <rect x="1136" y="27" width="26" height="13" rx="1.5" fill="#f04545" fill-opacity="0.22" stroke="#f04545" stroke-width="0.7"/>
  <text x="1149" y="36.5" text-anchor="middle" font-family="'Courier New',Courier,monospace" font-size="7.5" font-weight="bold" fill="#f04545">1%</text>
  <text x="1170" y="35"   font-family="'Courier New',Courier,monospace" font-size="7.5" fill="#f09090" letter-spacing="0.5">CONFIRMED THREAT</text>
  <text x="1166" y="47"   font-family="'Courier New',Courier,monospace" font-size="6"   fill="#f04545" opacity="0.6" letter-spacing="0.3">KDC · FTP · LDAP events</text>

  <rect x="1130" y="60" width="188" height="34" rx="2" fill="#110800" stroke="#ffb347" stroke-width="0.9" stroke-dasharray="4 2"/>
  <rect x="1136" y="65" width="26" height="13" rx="1.5" fill="#ffb347" fill-opacity="0.2" stroke="#ffb347" stroke-width="0.7"/>
  <text x="1149" y="74.5" text-anchor="middle" font-family="'Courier New',Courier,monospace" font-size="7.5" font-weight="bold" fill="#ffb347">6%</text>
  <text x="1170" y="73"   font-family="'Courier New',Courier,monospace" font-size="7.5" fill="#ffb347" letter-spacing="0.5">VULN. DETECTED</text>
  <text x="1166" y="85"   font-family="'Courier New',Courier,monospace" font-size="6"   fill="#ffb347" opacity="0.6" letter-spacing="0.3">HTTP · JSON · DNS events</text>

  <rect x="1130" y="97" width="188" height="32" rx="2" fill="#001008" stroke="#37c6f4" stroke-width="0.7" stroke-dasharray="4 2" opacity="0.72"/>
  <rect x="1136" y="102" width="26" height="13" rx="1.5" fill="#37c6f4" fill-opacity="0.12" stroke="#37c6f4" stroke-width="0.6"/>
  <text x="1149" y="111.5" text-anchor="middle" font-family="'Courier New',Courier,monospace" font-size="7" font-weight="bold" fill="#37c6f4" opacity="0.75">93%</text>
  <text x="1170" y="110"   font-family="'Courier New',Courier,monospace" font-size="7.5" fill="#7dafc4" opacity="0.82" letter-spacing="0.5">NO THREAT FOUND</text>
  <text x="1166" y="121"   font-family="'Courier New',Courier,monospace" font-size="6"   fill="#37c6f4" opacity="0.48" letter-spacing="0.3">TLS · SMTP · others</text>

  <!-- REMEDIATION CONNECTORS -->
  <line x1="1320" y1="39"  x2="1468" y2="39"  stroke="#f04545" stroke-width="0.85" opacity="0.38"/>
  <line x1="1320" y1="77"  x2="1468" y2="77"  stroke="#ffb347" stroke-width="0.85" opacity="0.32"/>
  <line x1="1320" y1="113" x2="1468" y2="113" stroke="#37c6f4" stroke-width="0.7"  opacity="0.25"/>

  <!-- REMEDIATION LABELS -->
  <text x="1472" y="26"  font-family="'Courier New',Courier,monospace" font-size="7.5" fill="#f09090" opacity="0.92" letter-spacing="0.4">&#9658; ISOLATE IMMEDIATELY</text>
  <text x="1472" y="37"  font-family="'Courier New',Courier,monospace" font-size="7.5" fill="#f09090" opacity="0.88" letter-spacing="0.4">&#9658; BLOCK &amp; CONTAIN</text>
  <text x="1472" y="48"  font-family="'Courier New',Courier,monospace" font-size="7.5" fill="#f09090" opacity="0.78" letter-spacing="0.4">&#9658; CERT REVOKE</text>
  <text x="1472" y="63"  font-family="'Courier New',Courier,monospace" font-size="7.5" fill="#ffb347" opacity="0.88" letter-spacing="0.4">&#9658; QUARANTINE</text>
  <text x="1472" y="74"  font-family="'Courier New',Courier,monospace" font-size="7.5" fill="#ffb347" opacity="0.88" letter-spacing="0.4">&#9658; PATCH IN SLA</text>
  <text x="1472" y="85"  font-family="'Courier New',Courier,monospace" font-size="7.5" fill="#ffb347" opacity="0.75" letter-spacing="0.4">&#9658; MONITOR &amp; ALERT</text>
  <text x="1472" y="101" font-family="'Courier New',Courier,monospace" font-size="7.5" fill="#7dafc4" opacity="0.65" letter-spacing="0.4">&#9658; AUDIT TRAIL</text>
  <text x="1472" y="112" font-family="'Courier New',Courier,monospace" font-size="7.5" fill="#7dafc4" opacity="0.55" letter-spacing="0.4">&#9658; EXCEPTION LOGGED</text>
  <text x="1472" y="123" font-family="'Courier New',Courier,monospace" font-size="7.5" fill="#7dafc4" opacity="0.45" letter-spacing="0.4">&#9658; IGNORE</text>

  <!-- Right endpoint nodes -->
  <circle cx="1875" cy="38"  r="5"   fill="none" stroke="#f04545" stroke-width="1.1" opacity="0.82"/>
  <circle cx="1875" cy="38"  r="1.8" fill="#f04545" opacity="0.88"/>
  <circle cx="1875" cy="77"  r="5"   fill="none" stroke="#ffb347" stroke-width="1.1" opacity="0.7"/>
  <circle cx="1875" cy="77"  r="1.8" fill="#ffb347" opacity="0.75"/>
  <circle cx="1875" cy="113" r="4"   fill="none" stroke="#37c6f4" stroke-width="0.85" opacity="0.5"/>
  <circle cx="1875" cy="113" r="1.5" fill="#37c6f4" opacity="0.55"/>
  <line x1="1875" y1="33" x2="1875" y2="118" stroke="#37c6f4" stroke-width="0.5" opacity="0.18"/>

  <!-- Color legend -->
  <circle cx="12"  cy="144" r="3" fill="#f04545" opacity="0.8"/>
  <text x="18"  y="147" font-family="'Courier New',Courier,monospace" font-size="6.5" fill="#f09090" opacity="0.7">HIGH RISK</text>
  <circle cx="73"  cy="144" r="3" fill="#ffb347" opacity="0.8"/>
  <text x="79"  y="147" font-family="'Courier New',Courier,monospace" font-size="6.5" fill="#ffb347" opacity="0.7">MEDIUM</text>
  <circle cx="126" cy="144" r="3" fill="#37c6f4" opacity="0.65"/>
  <text x="132" y="147" font-family="'Courier New',Courier,monospace" font-size="6.5" fill="#7dafc4" opacity="0.65">CLEAN</text>
</svg>
