<?xml version="1.0" encoding="UTF-8"?>
<svg xmlns="http://www.w3.org/2000/svg" viewBox="0 0 1889 150" fill="none">
  <defs>
    <linearGradient id="streamLine" x1="1" y1="0" x2="0" y2="0" gradientUnits="objectBoundingBox">
      <stop offset="0%"   stop-color="#37c6f4" stop-opacity="0.55"/>
      <stop offset="55%"  stop-color="#37c6f4" stop-opacity="0.2"/>
      <stop offset="85%"  stop-color="#37c6f4" stop-opacity="0.06"/>
      <stop offset="100%" stop-color="#37c6f4" stop-opacity="0"/>
    </linearGradient>
    <linearGradient id="streamLineAlt" x1="1" y1="0" x2="0" y2="0" gradientUnits="objectBoundingBox">
      <stop offset="0%"   stop-color="#37c6f4" stop-opacity="0.35"/>
      <stop offset="55%"  stop-color="#37c6f4" stop-opacity="0.12"/>
      <stop offset="85%"  stop-color="#37c6f4" stop-opacity="0.03"/>
      <stop offset="100%" stop-color="#37c6f4" stop-opacity="0"/>
    </linearGradient>
    <filter id="glow" x="-50%" y="-50%" width="200%" height="200%">
      <feGaussianBlur stdDeviation="2.5" result="blur"/>
      <feMerge><feMergeNode in="blur"/><feMergeNode in="SourceGraphic"/></feMerge>
    </filter>
    <filter id="dotGlow" x="-100%" y="-100%" width="300%" height="300%">
      <feGaussianBlur stdDeviation="1.5" result="blur"/>
      <feMerge><feMergeNode in="blur"/><feMergeNode in="SourceGraphic"/></feMerge>
    </filter>
  </defs>
  <line x1="0" y1="12" x2="1838" y2="12" stroke="url(#streamLine)" stroke-width="0.9"/>
  <line x1="420"  y1="9"  x2="420"  y2="15" stroke="#37c6f4" stroke-width="0.6" opacity="0.3"/>
  <line x1="760"  y1="9"  x2="760"  y2="15" stroke="#37c6f4" stroke-width="0.6" opacity="0.3"/>
  <line x1="1140" y1="9"  x2="1140" y2="15" stroke="#37c6f4" stroke-width="0.6" opacity="0.3"/>
  <line x1="1500" y1="9"  x2="1500" y2="15" stroke="#37c6f4" stroke-width="0.6" opacity="0.3"/>
  <circle cx="1843" cy="12" r="6"   fill="none"    stroke="#37c6f4" stroke-width="1.2" opacity="0.8" filter="url(#glow)"/>
  <circle cx="1843" cy="12" r="2.5" fill="#37c6f4" opacity="0.95" filter="url(#dotGlow)"/>
  <rect x="1856" y="4" width="26" height="16" rx="2" fill="#37c6f4" fill-opacity="0.12" stroke="#37c6f4" stroke-width="0.6" opacity="0.6"/>
  <text x="1869" y="15.5" text-anchor="middle" font-family="'Courier New',Courier,monospace" font-size="9" fill="#37c6f4" opacity="0.85" letter-spacing="0.3">KDC</text>
  <line x1="0" y1="30" x2="1838" y2="30" stroke="url(#streamLineAlt)" stroke-width="0.9"/>
  <line x1="350"  y1="27" x2="350"  y2="33" stroke="#37c6f4" stroke-width="0.6" opacity="0.25"/>
  <line x1="690"  y1="27" x2="690"  y2="33" stroke="#37c6f4" stroke-width="0.6" opacity="0.25"/>
  <line x1="1060" y1="27" x2="1060" y2="33" stroke="#37c6f4" stroke-width="0.6" opacity="0.25"/>
  <line x1="1430" y1="27" x2="1430" y2="33" stroke="#37c6f4" stroke-width="0.6" opacity="0.25"/>
  <circle cx="1843" cy="30" r="6"   fill="none"    stroke="#37c6f4" stroke-width="1.2" opacity="0.8" filter="url(#glow)"/>
  <circle cx="1843" cy="30" r="2.5" fill="#37c6f4" opacity="0.95" filter="url(#dotGlow)"/>
  <rect x="1856" y="22" width="26" height="16" rx="2" fill="#37c6f4" fill-opacity="0.12" stroke="#37c6f4" stroke-width="0.6" opacity="0.6"/>
  <text x="1869" y="33.5" text-anchor="middle" font-family="'Courier New',Courier,monospace" font-size="9" fill="#37c6f4" opacity="0.85" letter-spacing="0.3">FTP</text>
  <line x1="0" y1="47" x2="1838" y2="47" stroke="url(#streamLine)" stroke-width="0.9"/>
  <line x1="480"  y1="44" x2="480"  y2="50" stroke="#37c6f4" stroke-width="0.6" opacity="0.3"/>
  <line x1="820"  y1="44" x2="820"  y2="50" stroke="#37c6f4" stroke-width="0.6" opacity="0.3"/>
  <line x1="1200" y1="44" x2="1200" y2="50" stroke="#37c6f4" stroke-width="0.6" opacity="0.3"/>
  <line x1="1560" y1="44" x2="1560" y2="50" stroke="#37c6f4" stroke-width="0.6" opacity="0.3"/>
  <circle cx="1843" cy="47" r="6"   fill="none"    stroke="#37c6f4" stroke-width="1.2" opacity="0.8" filter="url(#glow)"/>
  <circle cx="1843" cy="47" r="2.5" fill="#37c6f4" opacity="0.95" filter="url(#dotGlow)"/>
  <rect x="1856" y="39" width="26" height="16" rx="2" fill="#37c6f4" fill-opacity="0.12" stroke="#37c6f4" stroke-width="0.6" opacity="0.6"/>
  <text x="1869" y="50.5" text-anchor="middle" font-family="'Courier New',Courier,monospace" font-size="9" fill="#37c6f4" opacity="0.85" letter-spacing="0.3">HTTP</text>
  <line x1="0" y1="65" x2="1838" y2="65" stroke="url(#streamLineAlt)" stroke-width="0.9"/>
  <line x1="400"  y1="62" x2="400"  y2="68" stroke="#37c6f4" stroke-width="0.6" opacity="0.25"/>
  <line x1="740"  y1="62" x2="740"  y2="68" stroke="#37c6f4" stroke-width="0.6" opacity="0.25"/>
  <line x1="1100" y1="62" x2="1100" y2="68" stroke="#37c6f4" stroke-width="0.6" opacity="0.25"/>
  <line x1="1470" y1="62" x2="1470" y2="68" stroke="#37c6f4" stroke-width="0.6" opacity="0.25"/>
  <circle cx="1843" cy="65" r="6"   fill="none"    stroke="#37c6f4" stroke-width="1.2" opacity="0.8" filter="url(#glow)"/>
  <circle cx="1843" cy="65" r="2.5" fill="#37c6f4" opacity="0.95" filter="url(#dotGlow)"/>
  <rect x="1856" y="57" width="26" height="16" rx="2" fill="#37c6f4" fill-opacity="0.12" stroke="#37c6f4" stroke-width="0.6" opacity="0.6"/>
  <text x="1869" y="68.5" text-anchor="middle" font-family="'Courier New',Courier,monospace" font-size="9" fill="#37c6f4" opacity="0.85" letter-spacing="0.3">JSON</text>
  <line x1="0" y1="82" x2="1838" y2="82" stroke="url(#streamLine)" stroke-width="0.9"/>
  <line x1="450"  y1="79" x2="450"  y2="85" stroke="#37c6f4" stroke-width="0.6" opacity="0.3"/>
  <line x1="800"  y1="79" x2="800"  y2="85" stroke="#37c6f4" stroke-width="0.6" opacity="0.3"/>
  <line x1="1170" y1="79" x2="1170" y2="85" stroke="#37c6f4" stroke-width="0.6" opacity="0.3"/>
  <line x1="1530" y1="79" x2="1530" y2="85" stroke="#37c6f4" stroke-width="0.6" opacity="0.3"/>
  <circle cx="1843" cy="82" r="6"   fill="none"    stroke="#37c6f4" stroke-width="1.2" opacity="0.8" filter="url(#glow)"/>
  <circle cx="1843" cy="82" r="2.5" fill="#37c6f4" opacity="0.95" filter="url(#dotGlow)"/>
  <rect x="1856" y="74" width="26" height="16" rx="2" fill="#37c6f4" fill-opacity="0.12" stroke="#37c6f4" stroke-width="0.6" opacity="0.6"/>
  <text x="1869" y="85.5" text-anchor="middle" font-family="'Courier New',Courier,monospace" font-size="9" fill="#37c6f4" opacity="0.85" letter-spacing="0.3">DNS</text>
  <line x1="0" y1="100" x2="1838" y2="100" stroke="url(#streamLineAlt)" stroke-width="0.9"/>
  <line x1="380"  y1="97"  x2="380"  y2="103" stroke="#37c6f4" stroke-width="0.6" opacity="0.25"/>
  <line x1="720"  y1="97"  x2="720"  y2="103" stroke="#37c6f4" stroke-width="0.6" opacity="0.25"/>
  <line x1="1080" y1="97"  x2="1080" y2="103" stroke="#37c6f4" stroke-width="0.6" opacity="0.25"/>
  <line x1="1450" y1="97"  x2="1450" y2="103" stroke="#37c6f4" stroke-width="0.6" opacity="0.25"/>
  <circle cx="1843" cy="100" r="6"   fill="none"    stroke="#37c6f4" stroke-width="1.2" opacity="0.8" filter="url(#glow)"/>
  <circle cx="1843" cy="100" r="2.5" fill="#37c6f4" opacity="0.95" filter="url(#dotGlow)"/>
  <rect x="1856" y="92" width="28" height="16" rx="2" fill="#37c6f4" fill-opacity="0.12" stroke="#37c6f4" stroke-width="0.6" opacity="0.6"/>
  <text x="1870" y="103.5" text-anchor="middle" font-family="'Courier New',Courier,monospace" font-size="9" fill="#37c6f4" opacity="0.85" letter-spacing="0.3">LDAP</text>
  <line x1="0" y1="118" x2="1838" y2="118" stroke="url(#streamLine)" stroke-width="0.9"/>
  <line x1="460"  y1="115" x2="460"  y2="121" stroke="#37c6f4" stroke-width="0.6" opacity="0.3"/>
  <line x1="810"  y1="115" x2="810"  y2="121" stroke="#37c6f4" stroke-width="0.6" opacity="0.3"/>
  <line x1="1190" y1="115" x2="1190" y2="121" stroke="#37c6f4" stroke-width="0.6" opacity="0.3"/>
  <line x1="1550" y1="115" x2="1550" y2="121" stroke="#37c6f4" stroke-width="0.6" opacity="0.3"/>
  <circle cx="1843" cy="118" r="6"   fill="none"    stroke="#37c6f4" stroke-width="1.2" opacity="0.8" filter="url(#glow)"/>
  <circle cx="1843" cy="118" r="2.5" fill="#37c6f4" opacity="0.95" filter="url(#dotGlow)"/>
  <rect x="1856" y="110" width="30" height="16" rx="2" fill="#37c6f4" fill-opacity="0.12" stroke="#37c6f4" stroke-width="0.6" opacity="0.6"/>
  <text x="1871" y="121.5" text-anchor="middle" font-family="'Courier New',Courier,monospace" font-size="9" fill="#37c6f4" opacity="0.85" letter-spacing="0.3">SMTP</text>
  <line x1="0" y1="135" x2="1838" y2="135" stroke="url(#streamLineAlt)" stroke-width="0.9"/>
  <line x1="390"  y1="132" x2="390"  y2="138" stroke="#37c6f4" stroke-width="0.6" opacity="0.25"/>
  <line x1="730"  y1="132" x2="730"  y2="138" stroke="#37c6f4" stroke-width="0.6" opacity="0.25"/>
  <line x1="1110" y1="132" x2="1110" y2="138" stroke="#37c6f4" stroke-width="0.6" opacity="0.25"/>
  <line x1="1480" y1="132" x2="1480" y2="138" stroke="#37c6f4" stroke-width="0.6" opacity="0.25"/>
  <circle cx="1843" cy="135" r="6"   fill="none"    stroke="#37c6f4" stroke-width="1.2" opacity="0.8" filter="url(#glow)"/>
  <circle cx="1843" cy="135" r="2.5" fill="#37c6f4" opacity="0.95" filter="url(#dotGlow)"/>
  <rect x="1856" y="127" width="26" height="16" rx="2" fill="#37c6f4" fill-opacity="0.12" stroke="#37c6f4" stroke-width="0.6" opacity="0.6"/>
  <text x="1869" y="140.5" text-anchor="middle" font-family="'Courier New',Courier,monospace" font-size="9" fill="#37c6f4" opacity="0.85" letter-spacing="0.3">TLS</text>
  <line x1="1843" y1="12" x2="1843" y2="135" stroke="#37c6f4" stroke-width="0.8" opacity="0.35"/>
  <line x1="600"  y1="0" x2="600"  y2="150" stroke="#37c6f4" stroke-width="0.4" opacity="0.07"/>
  <line x1="950"  y1="0" x2="950"  y2="150" stroke="#37c6f4" stroke-width="0.4" opacity="0.07"/>
  <line x1="1300" y1="0" x2="1300" y2="150" stroke="#37c6f4" stroke-width="0.4" opacity="0.07"/>
  <line x1="1650" y1="0" x2="1650" y2="150" stroke="#37c6f4" stroke-width="0.4" opacity="0.07"/>
</svg>
